HIERARCHY
ROOT Hips
{
  OFFSET 49.6862 100.575 14.7961
  CHANNELS 6 Xposition Yposition Zposition Zrotation Xrotation Yrotation
  JOINT spine
  {
    OFFSET 0 8.81705 0.507024
    CHANNELS 3 Zrotation Xrotation Yrotation
    JOINT spine1
    {
      OFFSET 0 10.7766 0
      CHANNELS 3 Zrotation Xrotation Yrotation
      JOINT spine2
      {
        OFFSET 0 10.3259 0
        CHANNELS 3 Zrotation Xrotation Yrotation
        JOINT Neck
        {
          OFFSET 0 26.511 1.26395
          CHANNELS 3 Zrotation Xrotation Yrotation
          JOINT Head
          {
            OFFSET 0 8.00966 0
            CHANNELS 3 Zrotation Xrotation Yrotation
            End Site
            {
              OFFSET 0 19.3879 -6.39386
            }
          }
        }
        JOINT RightShoulder
        {
          OFFSET -4.34795 11.1512 -0.605422
          CHANNELS 3 Zrotation Xrotation Yrotation
          JOINT RightArm
          {
            OFFSET 0 14.6258 0
            CHANNELS 3 Zrotation Xrotation Yrotation
            JOINT RightArmRoll
            {
              OFFSET 0 7.3834 0
              CHANNELS 3 Zrotation Xrotation Yrotation
              JOINT RightForeArm
              {
                OFFSET 0 21.5052 0
                CHANNELS 3 Zrotation Xrotation Yrotation
                JOINT RightForeArmRoll
                {
                  OFFSET 0 8.28532 0
                  CHANNELS 3 Zrotation Xrotation Yrotation
                  JOINT RightHand
                  {
                    OFFSET 0 16.6268 0
                    CHANNELS 3 Zrotation Xrotation Yrotation
                    End Site
                    {
                      OFFSET 0 0 0
                    }
                  }
                }
              }
            }
          }
        }
        JOINT LeftShoulder
        {
          OFFSET 4.34795 11.1512 -0.605422
          CHANNELS 3 Zrotation Xrotation Yrotation
          JOINT LeftArm
          {
            OFFSET 0 14.6258 0
            CHANNELS 3 Zrotation Xrotation Yrotation
            JOINT LeftArmRoll
            {
              OFFSET 0 7.3834 0
              CHANNELS 3 Zrotation Xrotation Yrotation
              JOINT LeftForeArm
              {
                OFFSET 0 21.5052 0
                CHANNELS 3 Zrotation Xrotation Yrotation
                JOINT LeftForeArmRoll
                {
                  OFFSET 0 8.28532 0
                  CHANNELS 3 Zrotation Xrotation Yrotation
                  JOINT LeftHand
                  {
                    OFFSET 0 16.6268 0
                    CHANNELS 3 Zrotation Xrotation Yrotation
                    End Site
                    {
                      OFFSET 0 0 0
                    }
                  }
                }
              }
            }
          }
        }
      }
    }
  }
  JOINT RightUpLeg
  {
    OFFSET -7.8151 -1.43309 -1.20217
    CHANNELS 3 Zrotation Xrotation Yrotation
    JOINT RightUpLegRoll
    {
      OFFSET 0 19.4959 0
      CHANNELS 3 Zrotation Xrotation Yrotation
      JOINT RightLeg
      {
        OFFSET 0 -24.1427 0
        CHANNELS 3 Zrotation Xrotation Yrotation
        JOINT RightLegRoll
        {
          OFFSET 0 24.2217 0
          CHANNELS 3 Zrotation Xrotation Yrotation
          JOINT RightFoot
          {
            OFFSET 0 20.1605 0
            CHANNELS 3 Zrotation Xrotation Yrotation
            JOINT RightToeBase
            {
              OFFSET 0 16.8532 0
              CHANNELS 3 Zrotation Xrotation Yrotation
              End Site
              {
                OFFSET 0.00714343 8.16187 -0.94078
              }
            }
          }
        }
      }
    }
  }
  JOINT LeftUpLeg
  {
    OFFSET 7.8151 -1.43309 -1.20217
    CHANNELS 3 Zrotation Xrotation Yrotation
    JOINT LeftUpLegRoll
    {
      OFFSET 0 19.496 0
      CHANNELS 3 Zrotation Xrotation Yrotation
      JOINT LeftLeg
      {
        OFFSET 0 24.1426 0
        CHANNELS 3 Zrotation Xrotation Yrotation
        JOINT LeftLegRoll
        {
          OFFSET 0 24.4456 0
          CHANNELS 3 Zrotation Xrotation Yrotation
          JOINT LeftFoot
          {
            OFFSET 0 19.9366 0
            CHANNELS 3 Zrotation Xrotation Yrotation
            JOINT LeftToeBase
            {
              OFFSET 0 16.8532 0
              CHANNELS 3 Zrotation Xrotation Yrotation
              End Site
              {
                OFFSET -0.0320138 8.16186 -0.940781
              }
            }
          }
        }
      }
    }
  }
}
MOTION
Frames: 13
Frame Time: 0.00208333
49.9691 100.528 13.7954 -0.320003 0.720552 3.1135 -0.140717 -3.02893 -0.103832 -0.277971 -2.05484 -0.198394 -0.275713 -0.409778 -0.193743 1.61726 17.4525 0.396904 -9.99027 2.8982 0.0223446 20.4702 -11.9882 -8.5048 17.0096 34.234 73.8563 4.27084e-006 1.46832e-006 4.06287e-007 -1.39549 67.187 4.38826 -2.15557e-006 4.27056e-008 -3 8.02917 -4.95141 0.697696 -22.8277 -12.3982 8.91253 -11.0097 40.837 -78.9027 4.0765e-005 -4.93083e-007 6.43907e-006 5.34333 59.1933 -5.114 1.15471e-005 -3.10875e-006 3 -8.02916 -4.95146 -0.697662 179.983 1.73559 -1.84382 180 7.01563e-015 178.996 179.238 5.96244 179.642 -4.82786e-006 -3.5404e-006 0.0333581 -18.1598 67.3913 19.0245 8.16321 25.6251 -2.99141 -177.533 3.26793 2.76085 4.54188e-006 -4.6773e-006 -1.02665 -2.11196 -8.52102 0.181578 -1.12726e-006 -1.61772e-006 -0.135366 19.4623 68.9938 -20.3965 -8.13666 25.2351 3.48439 
49.9682 100.53 13.8183 -0.320404 0.716789 3.09251 -0.141538 -3.03037 -0.10633 -0.279049 -2.0579 -0.20313 -0.276695 -0.412833 -0.198455 1.59355 17.4253 0.398162 -9.97341 2.97665 0.0248961 20.4265 -11.98 -8.4962 16.8174 34.3239 73.9795 4.27084e-006 1.46832e-006 4.06287e-007 -1.37971 67.5349 4.42828 -2.15557e-006 4.27056e-008 -3 8.02917 -4.95141 0.697696 -22.8179 -12.3785 8.88934 -10.8266 40.8115 -79.1135 4.0765e-005 -4.93083e-007 6.43907e-006 5.35975 59.4792 -5.17918 1.15471e-005 -3.10875e-006 3 -8.02916 -4.95146 -0.697662 179.985 1.73217 -1.84386 180 7.01563e-015 178.996 179.237 5.96415 179.643 -4.82786e-006 -3.5404e-006 0.0333333 -18.1611 67.3927 19.0258 8.16339 25.6278 -2.99389 -177.53 3.25905 2.7579 4.54188e-006 -4.6773e-006 -1.02681 -2.11283 -8.52406 0.181205 -1.12726e-006 -1.61772e-006 -0.135408 19.4635 68.9951 -20.3978 -8.13666 25.2351 3.48438 
49.9705 100.53 13.8199 -0.320642 0.713076 3.07136 -0.142325 -3.03178 -0.108775 -0.280115 -2.0609 -0.207741 -0.27767 -0.415834 -0.203042 1.56789 17.4009 0.399613 -9.95393 3.04952 0.0268652 20.3796 -11.9721 -8.488 16.6301 34.413 74.1014 4.27084e-006 1.46832e-006 4.06287e-007 -1.36756 67.866 4.47042 -2.15557e-006 4.27056e-008 -3 8.02917 -4.95141 0.697696 -22.8098 -12.3583 8.86562 -10.6463 40.7836 -79.3195 4.0765e-005 -4.93083e-007 6.43907e-006 5.37519 59.764 -5.24364 1.15471e-005 -3.10875e-006 3 -8.02916 -4.95146 -0.697662 179.987 1.72882 -1.84368 180 7.01563e-015 178.996 179.236 5.9659 179.643 -4.82786e-006 -3.5404e-006 0.0333085 -18.1623 67.3942 19.0272 8.16358 25.6304 -2.99639 -177.528 3.24987 2.75503 4.54188e-006 -4.6773e-006 -1.02696 -2.11381 -8.52666 0.180835 -1.12726e-006 -1.61772e-006 -0.13545 19.4646 68.9963 -20.3989 -8.13666 25.2351 3.48437 
49.9668 100.528 13.8203 -0.32069 0.709449 3.05 -0.143068 -3.03315 -0.111144 -0.281173 -2.06383 -0.212191 -0.278641 -0.418757 -0.207469 1.5405 17.3806 0.401375 -9.93177 3.1146 0.0282566 20.3291 -11.9643 -8.48021 16.4487 34.5003 74.2206 4.27084e-006 1.46832e-006 4.06287e-007 -1.35926 68.1784 4.51482 -2.15557e-006 4.27056e-008 -3 8.02917 -4.95141 0.697696 -22.8033 -12.3381 8.84169 -10.4686 40.7532 -79.5209 4.0765e-005 -4.93083e-007 6.43907e-006 5.38974 60.0481 -5.30737 1.15471e-005 -3.10875e-006 3 -8.02916 -4.95146 -0.697662 179.988 1.72554 -1.84322 180 7.01563e-015 178.996 179.235 5.9676 179.643 -4.82786e-006 -3.5404e-006 0.0332838 -18.1635 67.3957 19.0286 8.16376 25.633 -2.99889 -177.526 3.24033 2.75222 4.54188e-006 -4.6773e-006 -1.02711 -2.11493 -8.52867 0.180463 -1.12726e-006 -1.61772e-006 -0.135491 19.4655 68.9974 -20.3999 -8.13666 25.2351 3.48436 
49.9666 100.531 13.8277 -0.32052 0.705942 3.02842 -0.143761 -3.03447 -0.113415 -0.282226 -2.06665 -0.216442 -0.279613 -0.421582 -0.211697 1.51158 17.3658 0.403565 -9.90686 3.16967 0.0290753 20.2745 -11.9568 -8.47285 16.2742 34.5853 74.3361 4.27084e-006 1.46832e-006 4.06287e-007 -1.35505 68.4705 4.56156 -2.15557e-006 4.27056e-008 -3 8.02917 -4.95141 0.697696 -22.7983 -12.318 8.81785 -10.2935 40.7205 -79.718 4.0765e-005 -4.93083e-007 6.43907e-006 5.40354 60.3318 -5.37039 1.15471e-005 -3.10875e-006 3 -8.02916 -4.95146 -0.697662 179.989 1.72234 -1.84245 180 7.01563e-015 178.996 179.233 5.96922 179.643 -4.82786e-006 -3.5404e-006 0.0332592 -18.1648 67.3972 19.0299 8.16393 25.6356 -3.00136 -177.525 3.23038 2.74948 4.54188e-006 -4.6773e-006 -1.02727 -2.11626 -8.52997 0.180089 -1.12726e-006 -1.61772e-006 -0.135532 19.4662 68.9982 -20.4007 -8.13666 25.2351 3.48435 
49.9648 100.531 13.8417 -0.320105 0.702591 3.00659 -0.144397 -3.03575 -0.115565 -0.283277 -2.06936 -0.220457 -0.280591 -0.424285 -0.215688 1.48133 17.3579 0.406301 -9.87911 3.21254 0.0293261 20.2152 -11.9496 -8.46594 16.1079 34.6672 74.4467 4.27084e-006 1.46832e-006 4.06287e-007 -1.35511 68.7403 4.61073 -2.15557e-006 4.27056e-008 -3 8.02917 -4.95141 0.697696 -22.7945 -12.2982 8.79442 -10.1209 40.6855 -79.9109 4.0765e-005 -4.93083e-007 6.43907e-006 5.41671 60.6154 -5.43271 1.15471e-005 -3.10875e-006 3 -8.02916 -4.95146 -0.697662 179.989 1.71923 -1.84128 180 7.01563e-015 178.996 179.232 5.97066 179.644 -4.82786e-006 -3.5404e-006 0.0332347 -18.166 67.3987 19.0313 8.1641 25.638 -3.00378 -177.523 3.21994 2.74681 4.54188e-006 -4.6773e-006 -1.02742 -2.11784 -8.53039 0.179711 -1.12726e-006 -1.61772e-006 -0.135572 19.4667 68.9988 -20.4013 -8.13666 25.2351 3.48434 
49.9632 100.529 13.8472 -0.319419 0.699431 2.98447 -0.144969 -3.03697 -0.117572 -0.284329 -2.07192 -0.224197 -0.281577 -0.426844 -0.219406 1.44997 17.3583 0.409702 -9.84847 3.24097 0.0290139 20.1508 -11.9426 -8.45951 15.9508 34.7452 74.5511 4.27084e-006 1.46832e-006 4.06287e-007 -1.35962 68.9863 4.6624 -2.15557e-006 4.27056e-008 -3 8.02917 -4.95141 0.697696 -22.7919 -12.2792 8.77172 -9.95083 40.6483 -80.1 4.0765e-005 -4.93083e-007 6.43907e-006 5.42936 60.8995 -5.49436 1.15471e-005 -3.10875e-006 3 -8.02916 -4.95146 -0.697662 179.989 1.71623 -1.83968 180 7.01563e-015 178.996 179.23 5.97193 179.644 -4.82786e-006 -3.5404e-006 0.0332102 -18.1671 67.4 19.0325 8.16426 25.6403 -3.00611 -177.523 3.20897 2.74419 4.54188e-006 -4.6773e-006 -1.02758 -2.11972 -8.52979 0.179326 -1.12726e-006 -1.61772e-006 -0.135612 19.4668 68.9991 -20.4015 -8.13666 25.2351 3.48433 
49.9567 100.529 13.853 -0.318434 0.696498 2.96204 -0.145468 -3.03812 -0.119412 -0.285384 -2.07431 -0.227626 -0.282578 -0.429237 -0.222813 1.4177 17.3681 0.413884 -9.81486 3.25277 0.0281437 20.0806 -11.9358 -8.45355 15.804 34.8186 74.6482 4.27084e-006 1.46832e-006 4.06287e-007 -1.36871 69.2065 4.71656 -2.15557e-006 4.27056e-008 -3 8.02917 -4.95141 0.697696 -22.7904 -12.261 8.75006 -9.78316 40.609 -80.2854 4.0765e-005 -4.93083e-007 6.43907e-006 5.44163 61.1842 -5.55537 1.15471e-005 -3.10875e-006 3 -8.02916 -4.95146 -0.697662 179.988 1.71333 -1.83759 180 7.01563e-015 178.996 179.227 5.97292 179.645 -4.82786e-006 -3.5404e-006 0.0331858 -18.1681 67.4013 19.0337 8.16441 25.6425 -3.00834 -177.523 3.19739 2.74164 4.54188e-006 -4.6773e-006 -1.02774 -2.12196 -8.52803 0.178933 -1.12726e-006 -1.61772e-006 -0.135651 19.4667 68.9989 -20.4013 -8.13666 25.2351 3.48433 
49.9567 100.53 13.8604 -0.316967 0.693826 2.93907 -0.145888 -3.03925 -0.121132 -0.286454 -2.07661 -0.230793 -0.283603 -0.431538 -0.225958 1.38218 17.3892 0.418797 -9.77648 3.24529 0.025962 20.0021 -11.9293 -8.44811 15.6682 34.8899 74.74 4.27084e-006 1.46832e-006 4.06287e-007 -1.38336 69.3982 4.77437 -2.15557e-006 4.27056e-008 -3 8.02917 -4.95141 0.697696 -22.7912 -12.2426 8.72791 -9.61837 40.5655 -80.4626 4.0765e-005 -4.93083e-007 6.43907e-006 5.45207 61.4721 -5.61508 1.15471e-005 -3.10875e-006 3 -8.02916 -4.95146 -0.697662 179.986 1.71087 -1.8349 180 7.01563e-015 178.996 179.224 5.97416 179.645 -4.82786e-006 -3.5404e-006 0.0331615 -18.1693 67.4027 19.035 8.16455 25.6445 -3.01051 -177.523 3.18517 2.73921 4.54188e-006 -4.6773e-006 -1.0279 -2.12462 -8.52509 0.178523 -1.12726e-006 -1.61772e-006 -0.13569 19.4661 68.9984 -20.4008 -8.13666 25.2351 3.48432 
49.9599 100.529 13.8576 -0.314914 0.691397 2.91546 -0.146229 -3.04037 -0.12279 -0.287542 -2.0789 -0.233778 -0.284654 -0.433827 -0.228921 1.34146 17.421 0.424268 -9.73211 3.21913 0.0219106 19.9139 -11.9229 -8.44318 15.5425 34.9613 74.8296 4.27084e-006 1.46832e-006 4.06287e-007 -1.404 69.5615 4.83646 -2.15557e-006 4.27056e-008 -3 8.02917 -4.95141 0.697696 -22.7954 -12.2226 8.70378 -9.45695 40.5162 -80.6276 4.0765e-005 -4.93083e-007 6.43907e-006 5.45944 61.7644 -5.67299 1.15471e-005 -3.10875e-006 3 -8.02916 -4.95146 -0.697662 179.983 1.70907 -1.83157 180 7.01563e-015 178.996 179.221 5.9761 179.645 -4.82786e-006 -3.5404e-006 0.0331373 -18.1708 67.4046 19.0366 8.16467 25.6462 -3.01268 -177.524 3.17232 2.73695 4.54188e-006 -4.6773e-006 -1.02807 -2.12769 -8.52113 0.178092 -1.12726e-006 -1.61772e-006 -0.135729 19.4652 68.9975 -20.3998 -8.13666 25.2351 3.48431 
49.9555 100.528 13.8657 -0.312368 0.689173 2.8913 -0.146501 -3.04149 -0.124386 -0.288644 -2.08116 -0.23659 -0.285724 -0.436092 -0.231709 1.29631 17.4619 0.430232 -9.68252 3.17699 0.0162875 19.8175 -11.9167 -8.43873 15.4261 35.0328 74.9168 4.27084e-006 1.46832e-006 4.06287e-007 -1.42985 69.6987 4.90206 -2.15557e-006 4.27056e-008 -3 8.02917 -4.95141 0.697696 -22.8027 -12.2015 8.67807 -9.29873 40.4622 -80.7824 4.0765e-005 -4.93083e-007 6.43907e-006 5.46418 62.0599 -5.7293 1.15471e-005 -3.10875e-006 3 -8.02916 -4.95146 -0.697662 179.98 1.70779 -1.82771 180 7.01563e-015 178.996 179.218 5.97857 179.646 -4.82786e-006 -3.5404e-006 0.0331132 -18.1726 67.4067 19.0386 8.16478 25.6479 -3.01486 -177.526 3.15893 2.73484 4.54188e-006 -4.6773e-006 -1.02824 -2.1311 -8.51626 0.177643 -1.12726e-006 -1.61772e-006 -0.135767 19.464 68.9962 -20.3985 -8.13666 25.2351 3.4843 
49.9568 100.53 13.8796 -0.309422 0.687114 2.8667 -0.146712 -3.04259 -0.125917 -0.289751 -2.08339 -0.239234 -0.286805 -0.438319 -0.23433 1.24751 17.5104 0.436626 -9.62848 3.12154 0.00939091 19.7142 -11.9106 -8.43475 15.3178 35.1038 75.0016 4.27084e-006 1.46832e-006 4.06287e-007 -1.46014 69.8124 4.9704 -2.15557e-006 4.27056e-008 -3 8.02917 -4.95141 0.697696 -22.8126 -12.1794 8.65114 -9.14362 40.4044 -80.9285 4.0765e-005 -4.93083e-007 6.43907e-006 5.46671 62.3575 -5.78421 1.15471e-005 -3.10875e-006 3 -8.02916 -4.95146 -0.697662 179.975 1.70689 -1.82339 180 7.01563e-015 178.996 179.214 5.98141 179.646 -4.82786e-006 -3.5404e-006 0.0330891 -18.1746 67.4091 19.0407 8.16489 25.6494 -3.01704 -177.529 3.14505 2.73284 4.54188e-006 -4.6773e-006 -1.02842 -2.1348 -8.51059 0.177184 -1.12726e-006 -1.61772e-006 -0.135804 19.4625 68.9946 -20.397 -8.13666 25.2352 3.48429 
49.9532 100.529 13.8822 -0.306169 0.685181 2.84177 -0.146871 -3.04367 -0.127383 -0.290857 -2.08556 -0.24172 -0.28789 -0.440495 -0.236793 1.19584 17.5647 0.443385 -9.57078 3.05547 0.00151877 19.6056 -11.9049 -8.4312 15.2167 35.1742 75.084 4.27084e-006 1.46832e-006 4.06287e-007 -1.49406 69.9047 5.04068 -2.15557e-006 4.27056e-008 -3 8.02917 -4.95141 0.697696 -22.8247 -12.1567 8.62339 -8.99149 40.3435 -81.0677 4.0765e-005 -4.93083e-007 6.43907e-006 5.46744 62.6559 -5.83792 1.15471e-005 -3.10875e-006 3 -8.02916 -4.95146 -0.697662 179.97 1.70625 -1.81871 180 7.01563e-015 178.996 179.21 5.98446 179.647 -4.82786e-006 -3.5404e-006 0.0330651 -18.1766 67.4117 19.043 8.16499 25.6509 -3.01923 -177.532 3.13074 2.73095 4.54188e-006 -4.6773e-006 -1.0286 -2.13873 -8.50424 0.176717 -1.12726e-006 -1.61772e-006 -0.135842 19.4608 68.9929 -20.3952 -8.13666 25.2352 3.48428 
